<?xml version="1.0" encoding="utf-8"?>
<!-- Generator: Adobe Illustrator 23.0.3, SVG Export Plug-In . SVG Version: 6.00 Build 0)  -->
<svg version="1.1" id="Layer_1" xmlns="http://www.w3.org/2000/svg" xmlns:xlink="http://www.w3.org/1999/xlink" x="0px" y="0px"
	 viewBox="0 0 995.1 811.5" style="enable-background:new 0 0 995.1 811.5;" xml:space="preserve">
<style type="text/css">
	.st0{opacity:0.1;fill:#6C63FF;enable-background:new    ;}
	.st1{fill:#6C63FF;}
	.st2{fill:none;stroke:#535461;stroke-miterlimit:10;}
	.st3{fill:none;stroke:#535461;stroke-width:2;stroke-miterlimit:10;}
	.st4{opacity:0.25;enable-background:new    ;}
	.st5{fill:#5F546F;}
	.st6{opacity:0.1;enable-background:new    ;}
	.st7{fill:#EBECF0;}
	.st8{fill:#F8F9FA;}
	.st9{opacity:5.000000e-02;enable-background:new    ;}
	.st10{fill:#FEB7C5;}
	.st11{fill:#5D526D;}
	.st12{opacity:3.000000e-02;enable-background:new    ;}
	.st13{fill:#D6E6F9;}
	.st14{fill:#8E6F80;}
	.st15{fill:#DADAE5;}
	.st16{fill:none;}
	.st17{fill:#EFF0F4;}
	.st18{fill:#CCCAD6;}
	.st19{fill:#FFE09C;}
	.st20{fill:#E7C4C3;}
	.st21{fill:#FF7F8E;}
	.st22{fill:#94CC79;}
	.st23{opacity:0.2;fill:#FFFFFF;enable-background:new    ;}
</style>
<title>staying in</title>
<path class="st0" d="M102.6,439.4c36.7,62.7,29.8,146.9,13.6,213c-5.4,22.1-11.6,45.5-7,70.5c5.6,30.6,26.2,55,47,69.1
	c37.9,25.8,81.3,26.1,112.8,0.8c27.3-21.9,45.2-60.7,73-81.3c46.6-34.6,110.4-11.5,165.8,23c39.2,24.5,82.4,55.3,118.6,39.2
	c25.5-11.3,41.4-44.5,48.9-80.8c3.6-17.5,5.8-36.8,14-50c4.9-7.9,11.6-13.1,18.6-17.3c63.6-38.5,149.6-3.1,211-47
	c41.4-29.6,65-92.2,72.8-159.5s1.4-139.6-6.5-210.9c-5.7-50.6-13.3-104.9-38.7-146.6C919.5,17.5,877-2.9,840.1,0.3
	s-69,26.9-96.6,56.1c-34.5,36.4-65.7,83.3-110.3,94.2c-30.4,7.5-63.7-2.7-96-8.8c-54-10.2-107.3-8.8-160.2-6.7
	c-50.6,2.1-101.6,4.9-148.8,22.4c-33.4,12.4-59,39.2-90.2,56.3c-20.3,11.1-43.2,12.1-62.1,27.1c-23.3,18.5-43.5,53.3-34.2,97.9
	C50.7,381.3,83.1,406.1,102.6,439.4z"/>
<path class="st1" d="M7.1,307.3c0,0-49.6,77.4,112.9,78.8c0,0,2.4-67.4-50.7-95.1c-21.4-11.2-47.8-4.7-61.4,15.2L7.1,307.3z"/>
<path class="st2" d="M7.5,306c0,0,83.2,16.4,112.6,80.1"/>
<path class="st3" d="M127.3,375.7c0,0-53.4-69.1-48.6-137.1c2-28.6-4.7-57.1-20.2-81.2c-7.4-11.4-15.8-22.1-25.1-32"/>
<path class="st1" d="M36.2,82.4c3.7,9.6-2.8,44-2.8,44s-28.1-21-31.9-30.5C-2,86.3,2.9,75.6,12.5,72C21.9,68.5,32.4,73.1,36.2,82.4z
	"/>
<path class="st1" d="M85.6,124.2c-2.1,10.1-26.3,35.5-26.3,35.5s-12.2-32.9-10.2-43c2.1-10.1,11.9-16.5,22-14.4
	C81.2,104.3,87.6,114.1,85.6,124.2z"/>
<path class="st1" d="M119.6,215.2c-6.9,7.6-40.6,17.4-40.6,17.4S85,198,91.9,190.4c6.8-7.7,18.5-8.5,26.2-1.8
	c7.7,6.8,8.5,18.5,1.8,26.2C119.8,215,119.7,215.1,119.6,215.2z"/>
<path class="st1" d="M129.9,289.9c-5.5,8.7-37.1,24-37.1,24s0.1-35.1,5.6-43.8c5.3-8.8,16.7-11.6,25.5-6.4s11.6,16.7,6.4,25.5
	C130.2,289.5,130,289.7,129.9,289.9L129.9,289.9z"/>
<path class="st1" d="M23.6,175.8c9.5,4,44.1-1.6,44.1-1.6s-20.2-28.7-29.7-32.7c-9.5-4-20.4,0.5-24.4,9.9
	C9.7,160.9,14.2,171.8,23.6,175.8z"/>
<path class="st1" d="M36.8,262.9c10.2,1,41.6-14.7,41.6-14.7s-27.8-21.3-38.1-22.3c-10.2-0.7-19.1,7-19.8,17.3
	C19.8,253,27,261.7,36.8,262.9L36.8,262.9z"/>
<path class="st1" d="M61.2,345.9c9.9,2.7,43.5-7.5,43.5-7.5S80.8,312.6,70.9,310c-9.9-2.9-20.2,2.8-23,12.6
	c-2.9,9.9,2.8,20.2,12.6,23C60.7,345.7,60.9,345.8,61.2,345.9z"/>
<path class="st4" d="M36.2,82.4c3.7,9.6-2.8,44-2.8,44s-28.1-21-31.9-30.5C-2,86.3,2.9,75.6,12.5,72C21.9,68.5,32.4,73.1,36.2,82.4z
	"/>
<path class="st4" d="M85.6,124.2c-2.1,10.1-26.3,35.5-26.3,35.5s-12.2-32.9-10.2-43c2.1-10.1,11.9-16.5,22-14.4
	C81.2,104.3,87.6,114.1,85.6,124.2z"/>
<path class="st4" d="M119.6,215.2c-6.9,7.6-40.6,17.4-40.6,17.4S85,198,91.9,190.4c6.8-7.7,18.5-8.5,26.2-1.8
	c7.7,6.8,8.5,18.5,1.8,26.2C119.8,215,119.7,215.1,119.6,215.2z"/>
<path class="st4" d="M129.9,289.9c-5.5,8.7-37.1,24-37.1,24s0.1-35.1,5.6-43.8c5.3-8.8,16.7-11.6,25.5-6.4s11.6,16.7,6.4,25.5
	C130.2,289.5,130,289.7,129.9,289.9L129.9,289.9z"/>
<path class="st4" d="M23.6,175.8c9.5,4,44.1-1.6,44.1-1.6s-20.2-28.7-29.7-32.7c-9.5-4-20.4,0.5-24.4,9.9
	C9.7,160.9,14.2,171.8,23.6,175.8z"/>
<path class="st4" d="M36.8,262.9c10.2,1,41.6-14.7,41.6-14.7s-27.8-21.3-38.1-22.3c-10.2-0.7-19.1,7-19.8,17.3
	C19.8,253,27,261.7,36.8,262.9L36.8,262.9z"/>
<path class="st4" d="M61.2,345.9c9.9,2.7,43.5-7.5,43.5-7.5S80.8,312.6,70.9,310c-9.9-2.9-20.2,2.8-23,12.6
	c-2.9,9.9,2.8,20.2,12.6,23C60.7,345.7,60.9,345.8,61.2,345.9z"/>
<polygon class="st5" points="123,140.1 123,481.9 577.8,393.5 569.1,131.4 "/>
<polygon class="st6" points="123,140.1 123,481.9 577.8,393.5 569.1,131.4 "/>
<polygon class="st5" points="977.9,543.1 977.9,656.1 497.1,796.5 492.1,794 111.8,596.7 111.8,129.6 582.5,114.3 585.4,373.6 
	566.6,379.4 559.3,136.9 145.1,151.3 142.2,502.5 502.9,660.4 503.1,660.3 "/>
<polygon class="st6" points="977.9,543.1 977.9,656.1 497.1,796.5 492.1,794 503.1,660.3 "/>
<path class="st7" d="M398.2,379c0,0-232.8,23.2-255.5,56.9s-0.2,74.9-0.2,74.9l359.9,156.4l488.1-126c0,0-13-88.4-53.6-98.5
	s-363.6-79.7-363.6-79.7S443.1,355.1,398.2,379z"/>
<path class="st8" d="M142.6,436.3L509.7,563c0,0,391.6-118.8,447.1-107.5c0,0-274-98-383.4-93.8c-87.2,3.4-178.5,17.7-178.5,17.7
	S152.7,403.7,142.6,436.3z"/>
<path class="st1" d="M184.2,326l113.9-96c12.7-10.7,31.6-9.1,42.3,3.6l57.3,68c10.7,12.7,9.1,31.6-3.6,42.3l-113.9,96
	c-12.7,10.7-31.6,9.1-42.3-3.6l-57.3-68C169.9,355.6,171.5,336.7,184.2,326z"/>
<path class="st6" d="M184.2,327l113.9-96c12.7-10.7,31.6-9.1,42.3,3.6l57.3,68c10.7,12.7,9.1,31.6-3.6,42.3l-113.9,96
	c-12.7,10.7-31.6,9.1-42.3-3.6l-57.3-68C169.9,356.6,171.5,337.7,184.2,327z"/>
<path class="st1" d="M192.6,325.3L296,238.2c12.7-10.7,31.6-9.1,42.3,3.6l51,60.5c10.7,12.7,9.1,31.6-3.6,42.3l-103.5,87.2
	c-12.7,10.7-31.6,9.1-42.3-3.6l-51-60.5C178.3,355,179.9,336,192.6,325.3z"/>
<path class="st9" d="M217.3,380.9c2.9-3.9,6-8,10.5-9.7c2.6-1,5.5-1.2,8.1-2.3c5.4-2.3,8.3-8.1,10.3-13.7s3.7-11.5,8-15.5"/>
<path class="st9" d="M242.2,390.3c2.9-3.9,6-8,10.5-9.7c2.6-1,5.5-1.2,8.1-2.3c5.4-2.3,8.3-8.1,10.3-13.7s3.7-11.5,8-15.5"/>
<path class="st9" d="M296.8,309.4c2.9-3.9,6-8,10.5-9.7c2.6-1,5.5-1.2,8.1-2.3c5.4-2.3,8.3-8.1,10.3-13.7s3.7-11.5,8-15.5"/>
<path class="st6" d="M306.4,373.9c2.9-3.9,6-8,10.5-9.7c2.6-1,5.5-1.2,8.1-2.3c5.4-2.3,8.3-8.1,10.3-13.7s3.7-11.5,8-15.5"/>
<path class="st1" d="M366.2,304l113.9-96c12.7-10.7,31.6-9.1,42.3,3.6l57.3,68c10.7,12.7,9.1,31.6-3.6,42.3l-113.9,96
	c-12.7,10.7-31.6,9.1-42.3-3.6l-57.3-68C351.9,333.6,353.5,314.7,366.2,304z"/>
<path class="st6" d="M366.2,304l113.9-96c12.7-10.7,31.6-9.1,42.3,3.6l57.3,68c10.7,12.7,9.1,31.6-3.6,42.3l-113.9,96
	c-12.7,10.7-31.6,9.1-42.3-3.6l-57.3-68C351.9,333.6,353.5,314.7,366.2,304z"/>
<path class="st1" d="M374.6,303.3L478,216.2c12.7-10.7,31.6-9.1,42.3,3.6l51,60.5c10.7,12.7,9.1,31.6-3.6,42.3l-103.5,87.2
	c-12.7,10.7-31.6,9.1-42.3-3.6l-51-60.5C360.3,332.9,361.9,314,374.6,303.3z"/>
<path class="st9" d="M399.3,358.9c2.9-3.9,6-8,10.5-9.7c2.6-1,5.5-1.2,8.1-2.3c5.4-2.3,8.3-8.1,10.3-13.7s3.7-11.5,8-15.5"/>
<path class="st9" d="M424.2,368.3c2.9-3.9,6-8,10.5-9.7c2.6-1,5.5-1.2,8.1-2.3c5.4-2.3,8.3-8.1,10.3-13.7s3.7-11.5,8-15.5"/>
<path class="st9" d="M478.8,287.4c2.9-3.9,6-8,10.5-9.7c2.6-1,5.5-1.2,8.1-2.3c5.4-2.3,8.3-8.1,10.3-13.7s3.7-11.5,8-15.5"/>
<path class="st6" d="M488.3,351.9c2.9-3.9,6-8,10.5-9.7c2.6-1,5.5-1.2,8.1-2.3c5.4-2.3,8.3-8.1,10.3-13.7s3.7-11.5,8-15.5"/>
<path class="st10" d="M503.1,261.9c0,0-68,32-70,31s-28-7-16-31c3.5-7,6.2-14.4,8-22c2-7.8,3-15.9,3-24c0,0,42-19,45,3
	c1,7.1,3.3,12,6,15.4c3.2,4.1,7.8,6.9,13,7.6L503.1,261.9z"/>
<path class="st10" d="M202.1,483.9l-3,30c0,0-10,22-25,19c-1.6-0.3-3.3-0.8-4.9-1.3c-16.5-5.2-29.9-17.4-36.7-33.3
	c-2.4-5.5-0.6-12.1-0.4-13.5c1-7,10-42,29-20s30,33,30,33L202.1,483.9z"/>
<path class="st11" d="M365.1,366.9l-85,40l-12,14c0,0-9,7-17,9s-24,15-24,15l-30,21l-14,9l14,11l43-10l52-11l27-13l77-67
	L365.1,366.9z"/>
<path class="st12" d="M202.1,483.9l-3,30c0,0-10,22-25,19c-1.6-0.3-3.3-0.8-4.9-1.3c-16.5-5.2-29.9-17.4-36.7-33.3
	c-2.4-5.5-0.6-12.1-0.4-13.5c1-7,10-42,29-20s30,33,30,33L202.1,483.9z"/>
<path class="st9" d="M365.1,366.9l-85,40l-12,14c0,0-9,7-17,9s-24,15-24,15l-30,21l-14,9l14,11l43-10l52-11l27-13l77-67L365.1,366.9
	z"/>
<path class="st10" d="M261.1,495.9l-13.9,5.6l-12.8,5.1c-7.5,3-15.4,4.5-23.5,4.3c-1.6,0-3.1,0-4.6,0c-11.6,0.6-23-3.3-31.8-10.8
	c-1.7-1.4-3.4-2.8-5.2-4c-15.5-11-20.5-31.8-11.5-48.5l0.4-0.7c12-22,23-2,23-2s11,24,19,30c5.5,4.1,23.4,0.3,34.3-2.5
	c5.1-1.3,8.7-2.5,8.7-2.5L261.1,495.9z"/>
<path class="st6" d="M247.2,501.5c3.3-21.4-5-27.7-12.7-29.1c5.1-1.3,8.7-2.5,8.7-2.5l18,26L247.2,501.5z"/>
<path class="st11" d="M412.1,377.9c-18.4,10.5-38.1,22.9-58.5,37.4c-16.7,12-31.9,24-45.5,35.6c-14.9,5.8-28,15.6-37,12
	c-10-4-46,10-46,10s30-9,24,29l48-16c9.5,1.9,46.9,8.3,82-14c5.9-3.7,26.7-17.4,38.3-42.5c0,0,3.1-6.8,13.7-48.5l0,0L412.1,377.9z"
	/>
<path class="st10" d="M554.1,292.9c0,0,1,26,7,39c3.6,7.8,6.6,15.8,9,24l25,30l10,9c0,0,38,0,42,16s-58,5-58,5l-9-9l-42-26l-24-73
	L554.1,292.9z"/>
<path class="st10" d="M363.1,289.9c0,0-19,49-35,64s-24,11-24,11s-42,33-17,41s38-27,38-27l36-18c0,0,33-29,31-50
	S363.1,289.9,363.1,289.9z"/>
<path class="st12" d="M363.1,289.9c0,0-19,49-35,64s-24,11-24,11s-42,33-17,41s38-27,38-27l36-18c0,0,33-29,31-50
	S363.1,289.9,363.1,289.9z"/>
<path class="st13" d="M443.7,262.8c-7.4,0.4-19.3,3.7-19.6-19.9c0,0-18.9,4.4-33.9,7.7c-8.6,1.9-16.1,7.4-20.3,15.2l-13.9,25.2
	c0,0,6,17,25,19c0,0,4,40-32,65c-2.6,1.8-6,4.6-6.3,8.6c-1,15,46.1,30,80.5,39.3c3.6-1.3,6.3-2.2,9.9-3.5
	c13.5-18.8,30.1-39.4,50.1-60.7c12.5-13.3,24.9-25.2,36.7-35.8c0,0,30-2,41-30c0,0-20-26-20-36s-56-18-56-18s-6.8,27.4-30.4,24.3
	C451,262.7,447.4,262.6,443.7,262.8z"/>
<path class="st6" d="M479.1,234.4c-13.8,15.7-37.3,18.1-54,5.6c2-7.8,3-15.9,3-24c0,0,42-19,45,3C474.1,226,476.4,231,479.1,234.4z"
	/>
<circle class="st10" cx="449.1" cy="205.9" r="40"/>
<path class="st6" d="M433,135.4c-1.3,0.2-2.5,0.7-3.4,1.5c-1.3,1.3-1.3,3.4-1.8,5.2c-1,3.4-3.8,6-6.9,7.9s-6.4,3.2-9.2,5.4
	c-5.2,3.9-8.1,10-11.6,15.6c-4.6,7.4-10.5,13.9-17.2,19.4c1,2.3,4.5,1.6,6.5,3.1c2.4,1.8,1.4,5.6,0,8.2s-2.7,6.2-0.6,8.3
	c0.6,0.5,1.2,1.1,1.8,1.7c1.6,2.3-1.4,5.1-1.6,7.8s2.2,4.8,4.6,6s5.2,1.9,7,3.8c-1.8,2.5-3.7,5.7-2.3,8.4c1.5,3.1,6,3.1,9.4,2.3
	c0.9-0.3,1.8-0.4,2.7-0.1c0.8,0.4,1.5,1,2,1.7c3.8,3.7,11.3,2.2,13.3-2.8c1.1-2.7,0.6-5.7,0.8-8.6c0.2-4.6,1.8-9,2.4-13.6
	c1-7.7-1-15.5-1.1-23.3c-0.1-0.5,0-1,0.3-1.5c0.5-0.5,1.1-0.8,1.8-0.8c4.4-0.6,8.7-1.4,13-2.5c3.3-0.9,7-2.3,8.1-5.5
	c-0.7,2.4,0.5,4.9,2.4,6.6c1.9,1.5,4.2,2.6,6.6,3.2c5.8,1.7,12.4,2.8,17.4-0.6c-0.3,6.2-0.5,12.5,1.7,18.3
	c2.2,5.8,7.5,10.8,13.6,10.8c2.5,0,5.5-1.7,5-4.1c-0.3-1.4-1.6-2.3-2.6-3.3c-2.1-2-3-5.6-1-7.7c0.9-0.7,1.8-1.3,2.8-1.9
	c2.5-2,2.7-5.7,2.6-8.9c-0.3-6.6-1-13.1-2.2-19.6c-0.3-1.7-0.7-3.3-1.2-4.9c-0.9-2.2-2-4.4-3.3-6.4l-9.7-16.2
	c-1.1-2.2-2.6-4.1-4.5-5.7c-6.8-5.2-14.7,1.1-21.2-2.5c-3.4-1.9-5.8-4.3-9.8-5.2C442.4,133.8,437.6,134.4,433,135.4z"/>
<path class="st14" d="M433,134.4c-1.3,0.2-2.5,0.7-3.4,1.5c-1.3,1.3-1.3,3.4-1.8,5.2c-1,3.4-3.8,6-6.9,7.9s-6.4,3.2-9.2,5.4
	c-5.2,3.9-8.1,10-11.6,15.6c-4.6,7.4-10.5,13.9-17.2,19.4c1,2.3,4.5,1.6,6.5,3.1c2.4,1.8,1.4,5.6,0,8.2s-2.7,6.2-0.6,8.3
	c0.6,0.5,1.2,1.1,1.8,1.7c1.6,2.3-1.4,5.1-1.6,7.8s2.2,4.8,4.6,6s5.2,1.9,7,3.8c-1.8,2.5-3.7,5.7-2.3,8.4c1.5,3.1,6,3.1,9.4,2.3
	c0.9-0.3,1.8-0.4,2.7-0.1c0.8,0.4,1.5,1,2,1.7c3.8,3.7,11.3,2.2,13.3-2.8c1.1-2.7,0.6-5.7,0.8-8.6c0.2-4.6,1.8-9,2.4-13.6
	c1-7.7-1-15.5-1.1-23.3c-0.1-0.5,0-1,0.3-1.5c0.5-0.5,1.1-0.8,1.8-0.8c4.4-0.6,8.7-1.4,13-2.5c3.3-0.9,7-2.3,8.1-5.5
	c-0.7,2.4,0.5,4.9,2.4,6.6c1.9,1.5,4.2,2.6,6.6,3.2c5.8,1.7,12.4,2.8,17.4-0.6c-0.3,6.2-0.5,12.5,1.7,18.3
	c2.2,5.8,7.5,10.8,13.6,10.8c2.5,0,5.5-1.7,5-4.1c-0.3-1.4-1.6-2.3-2.6-3.3c-2.1-2-3-5.6-1-7.7c0.9-0.7,1.8-1.3,2.8-1.9
	c2.5-2,2.7-5.7,2.6-8.9c-0.3-6.6-1-13.1-2.2-19.6c-0.3-1.7-0.7-3.3-1.2-4.9c-0.9-2.2-2-4.4-3.3-6.4l-9.7-16.2
	c-1.1-2.2-2.6-4.1-4.5-5.7c-6.8-5.2-14.7,1.1-21.2-2.5c-3.4-1.9-5.8-4.3-9.8-5.2C442.4,132.8,437.6,133.4,433,134.4z"/>
<polygon class="st15" points="525.6,479.5 453.8,539.3 369.4,482.2 452.4,437.9 522.4,471 "/>
<polygon class="st16" points="417.1,354.5 453,425.2 369.5,467.5 316,368.1 "/>
<polygon class="st15" points="411.3,361.7 447.5,431.1 369.5,467.5 319,373.8 "/>
<polygon class="st12" points="417.1,355.3 411.3,362.4 319,374.5 316,368.9 "/>
<polygon class="st12" points="453,426 417.1,355.3 411.3,362.4 446.6,430.1 "/>
<polygon class="st17" points="417.1,354.5 411.3,361.7 319,373.8 316,368.1 "/>
<polygon class="st17" points="453,425.2 417.1,354.5 411.3,361.7 446.6,429.4 "/>
<polygon class="st12" points="417.1,354.5 408.3,365.7 316,377.8 316,368.1 "/>
<polygon class="st12" points="453,425.2 417.1,354.5 408.3,365.7 443.6,433.4 "/>
<polygon class="st12" points="453,426.3 453,440.8 369.5,485.4 369.5,468.5 "/>
<polygon class="st12" points="525.7,462.6 453,426.3 452.4,440.9 524.1,478.6 "/>
<polygon class="st17" points="453,425.2 453,437.8 369.5,482.3 369.5,467.5 "/>
<polygon class="st17" points="525.7,461.6 453,425.2 452.4,437.9 524.1,475.5 "/>
<polygon class="st12" points="453,425.2 453,437.8 369.5,482.3 369.5,467.5 "/>
<polygon class="st12" points="525.7,461.6 453,425.2 452.4,437.9 524.1,475.5 "/>
<polygon class="st18" points="525.7,461.6 525.5,479.6 453.9,539.2 453,520.8 "/>
<path class="st19" d="M489.3,464.4c0,0,1.8,2.4-0.1,3.9c-0.9,0.7-7.8,3.3-14.8,5.7c-3.4,1.2-6.9,2.4-9.6,3.3l-5.7,1.9l-1.8,0.3
	l-11,1.9l-10.3,1.8l-4.5-0.2l-0.2-17.6l10.8-16.4l3.1,1.9l0.5,0.3l7.7,2.4l21.8,6.7l9.8,3l1.1,0.3L489.3,464.4z"/>
<path class="st20" d="M423.9,483.2c0,0-0.5-19.2,5.6-26.8c0,0,4.9-6.8,8.2-9c0,0,2.7-2.6,6.7,3.4c0,0-10.4,8.9-11.2,20.2l-0.8,11.4
	L423.9,483.2z"/>
<ellipse transform="matrix(0.7491 -0.6625 0.6625 0.7491 -200.8775 410.2799)" class="st21" cx="441.2" cy="470.3" rx="5.9" ry="5"/>
<ellipse transform="matrix(0.7491 -0.6625 0.6625 0.7491 -191.9415 420.067)" class="st21" cx="458.5" cy="463.4" rx="5.9" ry="5"/>
<path class="st21" d="M453.5,453.7c0.2,2-0.7,3.9-2.2,5.2c-2.4,2.2-5.9,2.2-7.7,0.2s-1.3-5.5,1.1-7.7c0.2-0.1,0.3-0.3,0.5-0.4
	l0.5,0.3L453.5,453.7z"/>
<path class="st21" d="M456.2,476.1c0.9,1,1.2,2.3,1.1,3.6l-11,1.9c-0.2-2,0.6-4,2.2-5.4C450.9,474.1,454.4,474,456.2,476.1z"/>
<path class="st21" d="M473.5,469.5c1.1,1.3,1.4,3,0.9,4.6c-3.4,1.2-6.9,2.4-9.6,3.3l-0.1-0.1c-1.8-2.1-1.3-5.5,1.1-7.7
	S471.7,467.4,473.5,469.5z"/>
<path class="st21" d="M485.2,463.4c-0.3,0.5-0.8,1-1.2,1.5c-2.4,2.2-5.9,2.2-7.7,0.2c-1.1-1.3-1.4-3-0.9-4.6L485.2,463.4z"/>
<path class="st22" d="M439,477.8l1.3,1.4c0.9-1.2,2-2.2,3.3-3l0.3-0.1c1.8-0.6-1.3-1.4-1.3-1.4S439.2,476.7,439,477.8z"/>
<path class="st22" d="M445.8,465.1l1.3,1.4c0.9-1.2,2-2.2,3.3-3l0.3-0.1c1.8-0.6-1.3-1.4-1.3-1.4S446,464,445.8,465.1z"/>
<path class="st22" d="M451.8,468.4l1.3,1.4c0.9-1.2,2-2.2,3.3-3l0.3-0.1c1.8-0.6-1.3-1.4-1.3-1.4S452.1,467.3,451.8,468.4z"/>
<path class="st22" d="M463.9,470.5l1.3,1.4c0.9-1.2,2-2.2,3.3-3l0.3-0.1c1.8-0.6-1.3-1.4-1.3-1.4S464.1,469.5,463.9,470.5z"/>
<path class="st22" d="M480.4,467.4l1.3,1.4c0.9-1.2,2-2.2,3.3-3l0.3-0.1c1.8-0.6-1.3-1.4-1.3-1.4S480.6,466.3,480.4,467.4z"/>
<path class="st22" d="M465.8,463.6l1.3,1.4c0.9-1.2,2-2.2,3.3-3l0.3-0.1c1.8-0.6-1.3-1.4-1.3-1.4S466.1,462.5,465.8,463.6z"/>
<path class="st20" d="M427.8,487.5c0,0-6.5,0.3-3.9-4.4c3.3-1.4,6.9-1.9,10.5-1.5c0,0,27.2-3,30.4-5.5c0,0,23.9-7.8,24.7-9.2
	c0,0,2,0.1-3.5,3.7s-24.4,9.4-24.4,9.4l-20.1,4.8l-7.5,0.2L427.8,487.5z"/>
<path class="st23" d="M427.8,487.5c0,0-6.5,0.3-3.9-4.4c3.3-1.4,6.9-1.9,10.5-1.5c0,0,27.2-3,30.4-5.5c0,0,23.9-7.8,24.7-9.2
	c0,0,2,0.1-3.5,3.7s-24.4,9.4-24.4,9.4l-20.1,4.8l-7.5,0.2L427.8,487.5z"/>
<path class="st19" d="M482.7,471.3c0,0,2.5,1.5,1.4,3.7c-0.6,1-6,6-11.5,10.9c-2.7,2.4-5.5,4.8-7.6,6.7c-2.7,2.3-4.5,3.9-4.5,3.9
	l-1.6,1l-9.4,5.9l-8.9,5.6l-4.3,1.5l-6.8-16.2l3.9-19.3l3.6,0.6l0.6,0.1l8.1-0.7l22.8-2l10.2-0.9l1.2-0.1L482.7,471.3z"/>
<path class="st20" d="M429.3,513.3c0,0-7.7-17.6-5-27c0,0,2-8.2,4.2-11.5c0,0,1.5-3.5,7.5,0.6c0,0-6.3,12.1-2.8,23l3.6,10.8
	L429.3,513.3z"/>
<ellipse transform="matrix(0.4446 -0.8957 0.8957 0.4446 -198.7587 669.3223)" class="st21" cx="440.4" cy="494.9" rx="5.9" ry="5"/>
<ellipse transform="matrix(0.4446 -0.8957 0.8957 0.4446 -179.6629 674.2311)" class="st21" cx="453.9" cy="482" rx="5.9" ry="5"/>
<path class="st21" d="M445.6,474.8c0.9,1.8,0.9,3.9-0.1,5.6c-1.5,2.9-4.6,4.3-7.1,3.1s-3.3-4.6-1.9-7.5c0.1-0.2,0.2-0.4,0.3-0.6
	l0.6,0.1L445.6,474.8z"/>
<path class="st21" d="M456.5,494.5c1.2,0.6,2,1.7,2.3,2.9l-9.4,5.9c-1-1.8-1-4,0-5.8C450.9,494.7,454,493.3,456.5,494.5z"/>
<path class="st21" d="M470,481.9c1.5,0.8,2.4,2.3,2.5,3.9c-2.7,2.4-5.5,4.8-7.6,6.7l-0.1-0.1c-2.5-1.2-3.3-4.6-1.9-7.5
	S467.6,480.7,470,481.9z"/>
<path class="st21" d="M478.6,471.9c-0.1,0.6-0.3,1.2-0.6,1.8c-1.5,2.9-4.6,4.3-7.1,3.1c-1.5-0.8-2.5-2.3-2.5-4L478.6,471.9z"/>
<path class="st22" d="M441.2,502.5l1.7,0.8c0.3-1.5,1-2.8,1.9-4l0.2-0.2c1.4-1.3-1.7-0.8-1.7-0.8S441,501.4,441.2,502.5z"/>
<path class="st22" d="M442.7,488.2l1.7,0.8c0.3-1.5,1-2.8,1.9-4l0.2-0.2c1.4-1.3-1.7-0.8-1.7-0.8S442.5,487.1,442.7,488.2z"/>
<path class="st22" d="M449.5,489.1l1.7,0.8c0.3-1.5,1-2.8,1.9-4l0.2-0.2c1.4-1.3-1.7-0.8-1.7-0.8S449.3,488,449.5,489.1z"/>
<path class="st22" d="M461.5,486.5l1.7,0.8c0.3-1.5,1-2.8,1.9-4l0.2-0.2c1.4-1.3-1.7-0.8-1.7-0.8S461.3,485.4,461.5,486.5z"/>
<path class="st22" d="M475.6,477.4l1.7,0.8c0.3-1.5,1-2.8,1.9-4l0.2-0.2c1.4-1.3-1.7-0.8-1.7-0.8S475.4,476.3,475.6,477.4z"/>
<path class="st22" d="M460.7,479.3l1.7,0.8c0.3-1.5,1-2.8,1.9-4l0.2-0.2c1.4-1.3-1.7-0.8-1.7-0.8S460.5,478.2,460.7,479.3z"/>
<path class="st20" d="M434.5,515.9c0,0-5.9,2.7-5.2-2.6c2.5-2.5,5.7-4.3,9.2-5.3c0,0,24.1-13.1,26.1-16.6c0,0,19.2-16.2,19.4-17.8
	c0,0,1.9-0.7-1.9,4.8s-19,17.9-19,17.9l-16.8,12l-6.8,3L434.5,515.9z"/>
<path class="st23" d="M434.5,515.9c0,0-5.9,2.7-5.2-2.6c2.5-2.5,5.7-4.3,9.2-5.3c0,0,24.1-13.1,26.1-16.6c0,0,19.2-16.2,19.4-17.8
	c0,0,1.9-0.7-1.9,4.8s-19,17.9-19,17.9l-16.8,12l-6.8,3L434.5,515.9z"/>
<polygon class="st18" points="453,520.8 369.5,467.5 369.5,482.1 453.9,539.2 "/>
<polygon class="st18" points="360.5,472.7 369.5,467.5 316,368.1 309.7,374.2 "/>
</svg>
